<svg xmlns="http://www.w3.org/2000/svg" xmlns:xlink="http://www.w3.org/1999/xlink" contentStyleType="text/css" data-diagram-type="DESCRIPTION" height="1218px" preserveAspectRatio="none" style="width:1015px;height:1218px;background:#FEFEFE;" version="1.1" viewBox="0 0 1015 1218" width="1015px" zoomAndPan="magnify"><?plantuml 1.2026.6?><defs/><g><rect fill="#FEFEFE" height="1218" style="stroke:none;stroke-width:1;" width="1015" x="0" y="0"/><g class="title" data-source-line="16"><text fill="#000000" font-family="Helvetica" font-size="14" font-weight="700" lengthAdjust="spacing" textLength="328.2891" x="340.2713" y="20.7803">Coruja GPS &#8212; subsistemas e o caminho do dado</text></g><!--cluster host--><g class="cluster" data-qualified-name="host" data-source-line="44" id="ent0002"><path d="M21.7917,156.6611 L262.488,156.6611 A6,6 0 0 1 266.488,160.6611 L273.488,176.6611 L581.7917,176.6611 A4,4 0 0 1 585.7917,180.6611 L585.7917,586.6611 A4,4 0 0 1 581.7917,590.6611 L21.7917,590.6611 A4,4 0 0 1 17.7917,586.6611 L17.7917,160.6611 A4,4 0 0 1 21.7917,156.6611" fill="#FBFBFB" style="stroke:#909090;stroke-width:1.5;"/><line style="stroke:#909090;stroke-width:1.5;" x1="17.7917" x2="273.488" y1="176.6611" y2="176.6611"/><text fill="#000000" font-family="Helvetica" font-size="14" font-weight="700" lengthAdjust="spacing" textLength="133.041" x="21.7917" y="169.4414">Esta&#231;&#227;o de trabalho</text><text fill="#000000" font-family="Helvetica" font-size="14" font-style="italic" font-weight="700" lengthAdjust="spacing" textLength="101.876" x="162.6121" y="169.4414">(Python, stdlib)</text></g><!--cluster srv--><g class="cluster" data-qualified-name="srv" data-source-line="54" id="ent0010"><path d="M119.7917,646.6611 L295.1912,646.6611 A6,6 0 0 1 299.1912,650.6611 L306.1912,666.6611 L337.7917,666.6611 A4,4 0 0 1 341.7917,670.6611 L341.7917,781.6611 A4,4 0 0 1 337.7917,785.6611 L119.7917,785.6611 A4,4 0 0 1 115.7917,781.6611 L115.7917,650.6611 A4,4 0 0 1 119.7917,646.6611" fill="#FBFBFB" style="stroke:#909090;stroke-width:1.5;"/><line style="stroke:#909090;stroke-width:1.5;" x1="115.7917" x2="306.1912" y1="666.6611" y2="666.6611"/><text fill="#000000" font-family="Helvetica" font-size="14" font-weight="700" lengthAdjust="spacing" textLength="112.8271" x="119.7917" y="659.4414">Servidor da base</text><text fill="#000000" font-family="Helvetica" font-size="14" font-style="italic" font-weight="700" lengthAdjust="spacing" textLength="56.793" x="240.3982" y="659.4414">(Docker)</text></g><!--cluster cartao--><g class="cluster" data-qualified-name="cartao" data-source-line="58" id="ent0012"><path d="M373.7917,668.1611 L577.1501,668.1611 A6,6 0 0 1 581.1501,672.1611 L588.1501,688.1611 L867.7917,688.1611 A4,4 0 0 1 871.7917,692.1611 L871.7917,760.1611 A4,4 0 0 1 867.7917,764.1611 L373.7917,764.1611 A4,4 0 0 1 369.7917,760.1611 L369.7917,672.1611 A4,4 0 0 1 373.7917,668.1611" fill="#FBFBFB" style="stroke:#909090;stroke-width:1.5;"/><line style="stroke:#909090;stroke-width:1.5;" x1="369.7917" x2="588.1501" y1="688.1611" y2="688.1611"/><text fill="#000000" font-family="Helvetica" font-size="14" font-weight="700" lengthAdjust="spacing" textLength="105.8066" x="373.7917" y="680.9414">Cart&#227;o microSD</text><text fill="#000000" font-family="Helvetica" font-size="14" font-style="italic" font-weight="700" lengthAdjust="spacing" textLength="91.7725" x="487.3777" y="680.9414">(FAT32, MBR)</text></g><!--cluster aparelho--><g class="cluster" data-qualified-name="aparelho" data-source-line="64" id="ent0016"><path d="M438.7917,852.6611 L667.8533,852.6611 A6,6 0 0 1 671.8533,856.6611 L678.8533,872.6611 L677.7917,872.6611 A4,4 0 0 1 681.7917,876.6611 L681.7917,1136.6611 A4,4 0 0 1 677.7917,1140.6611 L438.7917,1140.6611 A4,4 0 0 1 434.7917,1136.6611 L434.7917,856.6611 A4,4 0 0 1 438.7917,852.6611" fill="#FBFBFB" style="stroke:#909090;stroke-width:1.5;"/><line style="stroke:#909090;stroke-width:1.5;" x1="434.7917" x2="678.8533" y1="872.6611" y2="872.6611"/><text fill="#000000" font-family="Helvetica" font-size="14" font-weight="700" lengthAdjust="spacing" textLength="231.0615" x="438.7917" y="865.4414">Aparelho &#8212; Raspberry Pi Pico 2 W</text></g><!--entity csv--><g class="entity" data-qualified-name="host.csv" data-source-line="45" id="ent0003"><rect fill="#FBF3E0" height="35" rx="4" ry="4" style="stroke:#A0803A;stroke-width:0.5;" width="126.7148" x="33.4317" y="193.1611"/><polygon fill="#FBF3E0" points="143.1466,198.1611,143.1466,212.1611,155.1466,212.1611,155.1466,204.1611,149.1466,198.1611,143.1466,198.1611" style="stroke:#A0803A;stroke-width:0.5;stroke-linejoin:miter;stroke-miterlimit:10;"/><line style="stroke:#A0803A;stroke-width:0.5;" x1="149.1466" x2="149.1466" y1="198.1611" y2="204.1611"/><line style="stroke:#A0803A;stroke-width:0.5;" x1="155.1466" x2="149.1466" y1="204.1611" y2="204.1611"/><text fill="#000000" font-family="Helvetica" font-size="12" lengthAdjust="spacing" textLength="96.7148" x="43.4317" y="215.4013">CSV padr&#227;o iGO8</text></g><!--entity converte--><g class="entity" data-qualified-name="host.converte" data-source-line="46" id="ent0004"><rect fill="#EAF2F8" height="42" rx="4" ry="4" style="stroke:#4A7BA7;stroke-width:0.5;" width="102.0332" x="33.7717" y="296.6611"/><rect fill="#EAF2F8" height="10" style="stroke:#4A7BA7;stroke-width:0.5;" width="15" x="115.8049" y="301.6611"/><rect fill="#EAF2F8" height="2" style="stroke:#4A7BA7;stroke-width:0.5;" width="4" x="113.8049" y="303.6611"/><rect fill="#EAF2F8" height="2" style="stroke:#4A7BA7;stroke-width:0.5;" width="4" x="113.8049" y="307.6611"/><text fill="#000000" font-family="Helvetica" font-size="12" lengthAdjust="spacing" textLength="62.0332" x="48.7717" y="325.9013">converte.py</text></g><!--entity formato--><g class="entity" data-qualified-name="host.formato" data-source-line="47" id="ent0005"><rect fill="#EAF2F8" height="54" rx="4" ry="4" style="stroke:#4A7BA7;stroke-width:0.5;" width="179.3887" x="148.1017" y="403.6611"/><rect fill="#EAF2F8" height="10" style="stroke:#4A7BA7;stroke-width:0.5;" width="15" x="307.4904" y="408.6611"/><rect fill="#EAF2F8" height="2" style="stroke:#4A7BA7;stroke-width:0.5;" width="4" x="305.4904" y="410.6611"/><rect fill="#EAF2F8" height="2" style="stroke:#4A7BA7;stroke-width:0.5;" width="4" x="305.4904" y="414.6611"/><text fill="#000000" font-family="Helvetica" font-size="12" lengthAdjust="spacing" textLength="104.0508" x="163.1017" y="432.9013">formato_radares.py</text><text fill="#000000" font-family="Helvetica" font-size="12" font-style="italic" lengthAdjust="spacing" textLength="139.3887" x="163.1017" y="444.9013">escritor e leitor do formato</text></g><!--entity geracfg--><g class="entity" data-qualified-name="host.geracfg" data-source-line="48" id="ent0006"><rect fill="#EAF2F8" height="42" rx="4" ry="4" style="stroke:#4A7BA7;stroke-width:0.5;" width="118.7207" x="420.4317" y="189.6611"/><rect fill="#EAF2F8" height="10" style="stroke:#4A7BA7;stroke-width:0.5;" width="15" x="519.1524" y="194.6611"/><rect fill="#EAF2F8" height="2" style="stroke:#4A7BA7;stroke-width:0.5;" width="4" x="517.1524" y="196.6611"/><rect fill="#EAF2F8" height="2" style="stroke:#4A7BA7;stroke-width:0.5;" width="4" x="517.1524" y="200.6611"/><text fill="#000000" font-family="Helvetica" font-size="12" lengthAdjust="spacing" textLength="78.7207" x="435.4317" y="218.9013">gera_config.py</text></g><!--entity testes--><g class="entity" data-qualified-name="host.testes" data-source-line="49" id="ent0007"><rect fill="#EAF2F8" height="54" rx="4" ry="4" style="stroke:#4A7BA7;stroke-width:0.5;" width="164.0723" x="180.7517" y="290.6611"/><rect fill="#EAF2F8" height="10" style="stroke:#4A7BA7;stroke-width:0.5;" width="15" x="324.824" y="295.6611"/><rect fill="#EAF2F8" height="2" style="stroke:#4A7BA7;stroke-width:0.5;" width="4" x="322.824" y="297.6611"/><rect fill="#EAF2F8" height="2" style="stroke:#4A7BA7;stroke-width:0.5;" width="4" x="322.824" y="301.6611"/><text fill="#000000" font-family="Helvetica" font-size="12" lengthAdjust="spacing" textLength="68.7129" x="195.7517" y="319.9013">su&#237;te no host</text><text fill="#000000" font-family="Helvetica" font-size="12" font-style="italic" lengthAdjust="spacing" textLength="124.0723" x="195.7517" y="331.9013">GoogleTest, 180 testes</text></g><!--entity binario--><g class="entity" data-qualified-name="host.binario" data-source-line="50" id="ent0008"><rect fill="#FBF3E0" height="47" rx="4" ry="4" style="stroke:#A0803A;stroke-width:0.5;" width="221.8125" x="126.8817" y="527.6611"/><polygon fill="#FBF3E0" points="331.6942,532.6611,331.6942,546.6611,343.6942,546.6611,343.6942,538.6611,337.6942,532.6611,331.6942,532.6611" style="stroke:#A0803A;stroke-width:0.5;stroke-linejoin:miter;stroke-miterlimit:10;"/><line style="stroke:#A0803A;stroke-width:0.5;" x1="337.6942" x2="337.6942" y1="532.6611" y2="538.6611"/><line style="stroke:#A0803A;stroke-width:0.5;" x1="343.6942" x2="337.6942" y1="538.6611" y2="538.6611"/><text fill="#000000" font-family="Helvetica" font-size="12" font-weight="700" lengthAdjust="spacing" textLength="64.6934" x="136.8817" y="549.9013">radares.bin</text><text fill="#000000" font-family="Helvetica" font-size="12" font-style="italic" lengthAdjust="spacing" textLength="191.8125" x="136.8817" y="561.9013">16 B de cabe&#231;alho + 12 B por ponto</text></g><!--entity cfg--><g class="entity" data-qualified-name="host.cfg" data-source-line="51" id="ent0009"><rect fill="#FBF3E0" height="47" rx="4" ry="4" style="stroke:#A0803A;stroke-width:0.5;" width="180.0469" x="389.7717" y="294.1611"/><polygon fill="#FBF3E0" points="552.8186,299.1611,552.8186,313.1611,564.8186,313.1611,564.8186,305.1611,558.8186,299.1611,552.8186,299.1611" style="stroke:#A0803A;stroke-width:0.5;stroke-linejoin:miter;stroke-miterlimit:10;"/><line style="stroke:#A0803A;stroke-width:0.5;" x1="558.8186" x2="558.8186" y1="299.1611" y2="305.1611"/><line style="stroke:#A0803A;stroke-width:0.5;" x1="564.8186" x2="558.8186" y1="305.1611" y2="305.1611"/><text fill="#000000" font-family="Helvetica" font-size="12" font-weight="700" lengthAdjust="spacing" textLength="57.3457" x="399.7717" y="316.4013">coruja.cfg</text><text fill="#000000" font-family="Helvetica" font-size="12" font-style="italic" lengthAdjust="spacing" textLength="150.0469" x="399.7717" y="328.4013">redes Wi-Fi e as duas URLs</text></g><!--entity api--><g class="entity" data-qualified-name="srv.api" data-source-line="55" id="ent0011"><rect fill="#EAF2F8" height="90" rx="4" ry="4" style="stroke:#4A7BA7;stroke-width:0.5;" width="194.0723" x="131.7517" y="679.6611"/><rect fill="#EAF2F8" height="10" style="stroke:#4A7BA7;stroke-width:0.5;" width="15" x="305.824" y="684.6611"/><rect fill="#EAF2F8" height="2" style="stroke:#4A7BA7;stroke-width:0.5;" width="4" x="303.824" y="686.6611"/><rect fill="#EAF2F8" height="2" style="stroke:#4A7BA7;stroke-width:0.5;" width="4" x="303.824" y="690.6611"/><text fill="#000000" font-family="Helvetica" font-size="12" lengthAdjust="spacing" textLength="58.6875" x="146.7517" y="708.9013">servidor.py</text><text fill="#000000" font-family="Helvetica" font-size="12" font-style="italic" lengthAdjust="spacing" textLength="118.7227" x="146.7517" y="720.9013">stdlib, duas rotas fixas</text><text fill="#000000" font-family="Helvetica" font-size="12" lengthAdjust="spacing" textLength="3.334" x="146.7517" y="732.9013">&#160;</text><text fill="#000000" font-family="Helvetica" font-size="12" lengthAdjust="spacing" textLength="154.0723" x="146.7517" y="744.9013">/radares.versao &#8594; uma linha</text><text fill="#000000" font-family="Helvetica" font-size="12" lengthAdjust="spacing" textLength="128.0684" x="146.7517" y="756.9013">/radares.bin &#8594; o bin&#225;rio</text></g><!--entity cfg_cartao--><g class="entity" data-qualified-name="cartao.cfg_cartao" data-source-line="59" id="ent0013"><rect fill="#FBF3E0" height="35" rx="4" ry="4" style="stroke:#A0803A;stroke-width:0.5;" width="82.0254" x="385.7817" y="707.1611"/><polygon fill="#FBF3E0" points="450.8071,712.1611,450.8071,726.1611,462.8071,726.1611,462.8071,718.1611,456.8071,712.1611,450.8071,712.1611" style="stroke:#A0803A;stroke-width:0.5;stroke-linejoin:miter;stroke-miterlimit:10;"/><line style="stroke:#A0803A;stroke-width:0.5;" x1="456.8071" x2="456.8071" y1="712.1611" y2="718.1611"/><line style="stroke:#A0803A;stroke-width:0.5;" x1="462.8071" x2="456.8071" y1="718.1611" y2="718.1611"/><text fill="#000000" font-family="Helvetica" font-size="12" lengthAdjust="spacing" textLength="52.0254" x="395.7817" y="729.4013">coruja.cfg</text></g><!--entity bin_cartao--><g class="entity" data-qualified-name="cartao.bin_cartao" data-source-line="60" id="ent0014"><rect fill="#FBF3E0" height="47" rx="4" ry="4" style="stroke:#A0803A;stroke-width:0.5;" width="215.748" x="639.9217" y="701.1611"/><polygon fill="#FBF3E0" points="838.6698,706.1611,838.6698,720.1611,850.6698,720.1611,850.6698,712.1611,844.6698,706.1611,838.6698,706.1611" style="stroke:#A0803A;stroke-width:0.5;stroke-linejoin:miter;stroke-miterlimit:10;"/><line style="stroke:#A0803A;stroke-width:0.5;" x1="844.6698" x2="844.6698" y1="706.1611" y2="712.1611"/><line style="stroke:#A0803A;stroke-width:0.5;" x1="850.6698" x2="844.6698" y1="712.1611" y2="712.1611"/><text fill="#000000" font-family="Helvetica" font-size="12" lengthAdjust="spacing" textLength="60.0352" x="649.9217" y="723.4013">radares.bin</text><text fill="#000000" font-family="Helvetica" font-size="12" font-style="italic" lengthAdjust="spacing" textLength="185.748" x="649.9217" y="735.4013">+ .tmp na troca, .bak como reserva</text></g><!--entity versao_cartao--><g class="entity" data-qualified-name="cartao.versao_cartao" data-source-line="61" id="ent0015"><rect fill="#FBF3E0" height="35" rx="4" ry="4" style="stroke:#A0803A;stroke-width:0.5;" width="82.0195" x="512.7817" y="707.1611"/><polygon fill="#FBF3E0" points="577.8013,712.1611,577.8013,726.1611,589.8013,726.1611,589.8013,718.1611,583.8013,712.1611,577.8013,712.1611" style="stroke:#A0803A;stroke-width:0.5;stroke-linejoin:miter;stroke-miterlimit:10;"/><line style="stroke:#A0803A;stroke-width:0.5;" x1="583.8013" x2="583.8013" y1="712.1611" y2="718.1611"/><line style="stroke:#A0803A;stroke-width:0.5;" x1="589.8013" x2="583.8013" y1="718.1611" y2="718.1611"/><text fill="#000000" font-family="Helvetica" font-size="12" lengthAdjust="spacing" textLength="52.0195" x="522.7817" y="729.4013">versao.txt</text></g><!--entity fw--><g class="entity" data-qualified-name="aparelho.fw" data-source-line="65" id="ent0017"><rect fill="#EAF2F8" height="102" rx="4" ry="4" style="stroke:#4A7BA7;stroke-width:0.5;" width="198.7305" x="458.4217" y="885.6611"/><rect fill="#EAF2F8" height="10" style="stroke:#4A7BA7;stroke-width:0.5;" width="15" x="637.1522" y="890.6611"/><rect fill="#EAF2F8" height="2" style="stroke:#4A7BA7;stroke-width:0.5;" width="4" x="635.1522" y="892.6611"/><rect fill="#EAF2F8" height="2" style="stroke:#4A7BA7;stroke-width:0.5;" width="4" x="635.1522" y="896.6611"/><text fill="#000000" font-family="Helvetica" font-size="12" font-weight="700" lengthAdjust="spacing" textLength="50.0215" x="473.4217" y="914.9013">firmware</text><text fill="#000000" font-family="Helvetica" font-size="12" lengthAdjust="spacing" textLength="6.668" x="523.4432" y="914.9013">&#160;&#160;</text><text fill="#000000" font-family="Helvetica" font-size="12" font-style="italic" lengthAdjust="spacing" textLength="102.041" x="530.1112" y="914.9013">(C++17, Pico SDK)</text><text fill="#000000" font-family="Helvetica" font-size="12" lengthAdjust="spacing" textLength="3.334" x="473.4217" y="926.9013">&#160;</text><text fill="#000000" font-family="Helvetica" font-size="12" lengthAdjust="spacing" textLength="150.7559" x="473.4217" y="938.9013">app &#183; rede &#183; armazenamento</text><text fill="#000000" font-family="Helvetica" font-size="12" lengthAdjust="spacing" textLength="140.7598" x="473.4217" y="950.9013">nucleo &#183; encoder &#183; led &#183; log</text><text fill="#000000" font-family="Helvetica" font-size="12" lengthAdjust="spacing" textLength="3.334" x="473.4217" y="962.9013">&#160;</text><text fill="#000000" font-family="Helvetica" font-size="12" font-style="italic" lengthAdjust="spacing" textLength="138.0527" x="473.4217" y="974.9013">detalhe em firmware.puml</text></g><!--entity perif--><g class="entity" data-qualified-name="aparelho.perif" data-source-line="66" id="ent0018"><rect fill="#EAF2F8" height="78" rx="4" ry="4" style="stroke:#4A7BA7;stroke-width:0.5;" width="189.4082" x="459.0917" y="1046.6611"/><rect fill="#EAF2F8" height="10" style="stroke:#4A7BA7;stroke-width:0.5;" width="15" x="628.4999" y="1051.6611"/><rect fill="#EAF2F8" height="2" style="stroke:#4A7BA7;stroke-width:0.5;" width="4" x="626.4999" y="1053.6611"/><rect fill="#EAF2F8" height="2" style="stroke:#4A7BA7;stroke-width:0.5;" width="4" x="626.4999" y="1057.6611"/><text fill="#000000" font-family="Helvetica" font-size="12" lengthAdjust="spacing" textLength="55.3535" x="474.0917" y="1075.9013">perif&#233;ricos</text><text fill="#000000" font-family="Helvetica" font-size="12" lengthAdjust="spacing" textLength="3.334" x="474.0917" y="1087.9013">&#160;</text><text fill="#000000" font-family="Helvetica" font-size="12" lengthAdjust="spacing" textLength="149.4082" x="474.0917" y="1099.9013">encoder KY-040 &#183; LED RGB</text><text fill="#000000" font-family="Helvetica" font-size="12" font-style="italic" lengthAdjust="spacing" textLength="118.7168" x="474.0917" y="1111.9013">GPS &#183; display &#183; buzzer</text></g><!--entity fonte--><g class="entity" data-qualified-name="fonte" data-source-line="42" id="ent0001"><path d="M16.8138,56.2739 C19.7806,50.5953 24.4585,49.1954 28.5259,55.1675 C30.9115,49.0644 35.8202,49.4372 39.5722,53.7134 C42.9887,46.646 48.2474,46.3304 52.6826,52.721 C54.44,47.179 58.4491,46.5161 62.3604,50.5425 C65.8735,45.1425 72.2076,44.1692 75.4827,50.802 C76.5855,44.588 81.7341,44.3049 85.7584,47.6672 C89.8199,41.1675 94.4581,41 98.6222,47.5661 C102.4503,42.1909 106.6259,42.8631 110.1678,47.8839 C114.1533,43.1755 119.6336,43.5771 121.9394,49.7081 C126.5795,45.5306 131.0113,45.307 133.3762,52.0835 C136.8223,45.9481 140.6576,46.5826 144.3897,51.8062 C149.4955,46.3287 153.1995,47.0767 156.0626,53.9294 C159.5769,49.3757 165.3076,48.8502 167.3727,55.4049 C170.5573,49.7547 175.168,51.1278 178.1934,55.5756 C184.262,58.1167 186.6854,61.417 181.6401,67.2417 C187.9066,68.6928 188.3413,72.2551 185.0492,77.0339 C189.6776,82.1629 187.1133,86.4785 181.1854,87.8292 C185.3841,92.7335 185.3834,96.1973 178.8419,98.8093 C174.829,104.039 169.4219,102.9521 166.4206,97.6196 C163.5048,102.5448 160.1954,104.1839 155.7128,99.3363 C153.0816,103.9416 147.9875,104.2394 144.9019,99.8846 C141.3214,105.9799 136.4171,105.7361 133.4643,99.3112 C130.682,106.4547 125.8771,105.9814 121.3381,101.0796 C117.535,108.2081 113.0689,107.6924 108.385,101.9673 C105.8247,106.3703 101.5466,106.2312 99.0033,101.9489 C94.1533,107.1134 88.9621,108.0839 85.7014,100.3144 C82.962,104.6535 78.298,105.1145 75.6062,100.2622 C71.78,105.8832 66.9026,105.6669 63.1526,100.1768 C59.2062,105.2729 54.7366,105.3223 51.7767,99.1783 C48.3977,104.2895 43.4612,103.5454 40.3463,98.8699 C37.6269,104.4789 32.7532,104.2208 29.6842,99.2213 C25.6226,105.5307 20.5971,104.8502 16.9585,98.7863 C11.2344,97.1649 9.5947,92.5025 14.0644,88.1162 C8.0141,87.1018 6.1439,81.9668 9.893,77.2058 C6,73.1033 6.6072,67.9837 12.893,66.8219 C9.2707,61.9047 11.0006,57.6839 16.8138,56.2739" fill="#F0F0F0" style="stroke:#181818;stroke-width:0.5;"/><text fill="#000000" font-family="Helvetica" font-size="14" lengthAdjust="spacing" textLength="84.8477" x="23.2517" y="72.4414">fonte da base</text><text fill="#000000" font-family="Helvetica" font-size="14" font-style="italic" lengthAdjust="spacing" textLength="147.0889" x="23.2517" y="86.4414">externa, n&#227;o presumida</text></g><!--link fonte to csv--><g class="link" data-entity-1="ent0001" data-entity-2="ent0003" data-link-type="dependency" data-source-line="69" id="lnk19"><path d="M96.7917,104.8711 C96.7917,131.5511 96.7917,165.7211 96.7917,187.8411" fill="none" id="fonte-to-csv" style="stroke:#666666;stroke-width:1;stroke-dasharray:7,7;"/><polygon fill="#666666" points="96.7917,192.8411,100.7917,183.8411,96.7917,187.8411,92.7917,183.8411,96.7917,192.8411" style="stroke:#666666;stroke-width:1;stroke-linejoin:miter;stroke-miterlimit:10;"/><text fill="#000000" font-family="Helvetica" font-size="11" lengthAdjust="spacing" textLength="120.4575" x="97.7917" y="137.1313">quem monta providencia</text></g><!--link csv to converte--><g class="link" data-entity-1="ent0003" data-entity-2="ent0004" data-link-type="dependency" data-source-line="70" id="lnk20"><path d="M94.8617,228.5311 C92.7617,246.9611 89.9508,271.5336 87.6908,291.2636" fill="none" id="csv-to-converte" style="stroke:#666666;stroke-width:1;"/><polygon fill="#666666" points="87.1217,296.2311,92.12,287.7448,87.6908,291.2636,84.172,286.8343,87.1217,296.2311" style="stroke:#666666;stroke-width:1;stroke-linejoin:miter;stroke-miterlimit:10;"/></g><!--link converte to formato--><g class="link" data-entity-1="ent0004" data-entity-2="ent0005" data-link-type="dependency" data-source-line="71" id="lnk21"><path d="M112.8517,339.0211 C137.7817,357.1111 170.3354,380.714 197.4754,400.414" fill="none" id="converte-to-formato" style="stroke:#666666;stroke-width:1;"/><polygon fill="#666666" points="201.5217,403.3511,196.588,394.8271,197.4754,400.414,191.8885,401.3014,201.5217,403.3511" style="stroke:#666666;stroke-width:1;stroke-linejoin:miter;stroke-miterlimit:10;"/><text fill="#000000" font-family="Helvetica" font-size="11" lengthAdjust="spacing" textLength="17.7354" x="166.8817" y="377.1313">usa</text></g><!--link testes to formato--><g class="link" data-entity-1="ent0007" data-entity-2="ent0005" data-link-type="dependency" data-source-line="72" id="lnk22"><path d="M256.8717,344.9711 C252.8817,362.6611 248.7516,381.0136 244.7716,398.6636" fill="none" id="testes-to-formato" style="stroke:#666666;stroke-width:1;stroke-dasharray:7,7;"/><polygon fill="#666666" points="243.6717,403.5411,249.5535,395.6414,244.7716,398.6636,241.7495,393.8816,243.6717,403.5411" style="stroke:#666666;stroke-width:1;stroke-linejoin:miter;stroke-miterlimit:10;"/><text fill="#000000" font-family="Helvetica" font-size="11" lengthAdjust="spacing" textLength="37.9146" x="252.0417" y="377.1313">valida o</text><text fill="#000000" font-family="Helvetica" font-size="11" font-weight="700" lengthAdjust="spacing" textLength="38.5161" x="293.0124" y="377.1313">mesmo</text><text fill="#000000" font-family="Helvetica" font-size="11" lengthAdjust="spacing" textLength="37.2915" x="334.5847" y="377.1313">formato</text></g><!--link formato to binario--><g class="link" data-entity-1="ent0005" data-entity-2="ent0008" data-link-type="dependency" data-source-line="73" id="lnk23"><path d="M237.7917,457.9611 C237.7917,478.8211 237.7917,502.6811 237.7917,522.5311" fill="none" id="formato-to-binario" style="stroke:#666666;stroke-width:1;"/><polygon fill="#666666" points="237.7917,527.5311,241.7917,518.5311,237.7917,522.5311,233.7917,518.5311,237.7917,527.5311" style="stroke:#666666;stroke-width:1;stroke-linejoin:miter;stroke-miterlimit:10;"/><text fill="#000000" font-family="Helvetica" font-size="11" lengthAdjust="spacing" textLength="38.5161" x="283.4309" y="490.1313">escreve</text><text fill="#000000" font-family="Helvetica" font-size="11" font-style="italic" lengthAdjust="spacing" textLength="127.7944" x="238.7917" y="501.1313">quantiza, ordena, CRC-32</text></g><!--link geracfg to cfg--><g class="link" data-entity-1="ent0006" data-entity-2="ent0009" data-link-type="dependency" data-source-line="74" id="lnk24"><path d="M479.7917,232.1511 C479.7917,249.8211 479.7917,270.3011 479.7917,288.6611" fill="none" id="geracfg-to-cfg" style="stroke:#666666;stroke-width:1;"/><polygon fill="#666666" points="479.7917,293.6611,483.7917,284.6611,479.7917,288.6611,475.7917,284.6611,479.7917,293.6611" style="stroke:#666666;stroke-width:1;stroke-linejoin:miter;stroke-miterlimit:10;"/><text fill="#000000" font-family="Helvetica" font-size="11" lengthAdjust="spacing" textLength="38.5161" x="480.7917" y="264.1313">escreve</text><text fill="#000000" font-family="Helvetica" font-size="11" font-style="italic" lengthAdjust="spacing" textLength="31.7969" x="522.364" y="264.1313">(0600)</text></g><!--link binario to api--><g class="link" data-entity-1="ent0008" data-entity-2="ent0011" data-link-type="dependency" data-source-line="76" id="lnk25"><path d="M230.0517,574.9511 C227.1517,584.6111 224.2217,596.0611 222.7917,606.6611 C219.5617,630.5411 220.1466,652.4128 222.1966,674.3528" fill="none" id="binario-to-api" style="stroke:#666666;stroke-width:1;"/><polygon fill="#666666" points="222.6617,679.3311,225.8071,669.998,222.1966,674.3528,217.8418,670.7422,222.6617,679.3311" style="stroke:#666666;stroke-width:1;stroke-linejoin:miter;stroke-miterlimit:10;"/><text fill="#000000" font-family="Helvetica" font-size="11" lengthAdjust="spacing" textLength="65.4307" x="228.6794" y="616.1313">publicado em</text><text fill="#000000" font-family="Helvetica" font-size="11" lengthAdjust="spacing" textLength="75.2061" x="223.7917" y="627.1313">servidor/dados/</text></g><!--link cfg to cfg_cartao--><g class="link" data-entity-1="ent0009" data-entity-2="ent0013" data-link-type="dependency" data-source-line="77" id="lnk26"><path d="M479.2717,341.5611 C477.7617,393.4211 472.2017,523.6711 452.7917,630.6611 C447.8817,657.7111 440.1458,683.5187 434.1058,701.9887" fill="none" id="cfg-to-cfg_cartao" style="stroke:#666666;stroke-width:1;"/><polygon fill="#666666" points="432.5517,706.7411,439.151,699.4301,434.1058,701.9887,431.5472,696.9436,432.5517,706.7411" style="stroke:#666666;stroke-width:1;stroke-linejoin:miter;stroke-miterlimit:10;"/><text fill="#000000" font-family="Helvetica" font-size="11" lengthAdjust="spacing" textLength="72.1606" x="472.2917" y="495.6313">copiado &#224; m&#227;o</text></g><!--link binario to bin_cartao--><g class="link" data-entity-1="ent0008" data-entity-2="ent0014" data-link-type="dependency" data-source-line="78" id="lnk27"><path d="M349.1117,566.8211 C426.6317,579.5711 531.2217,601.9111 617.7917,638.6611 C655.4017,654.6211 690.0443,678.4312 715.3143,697.6812" fill="none" id="binario-to-bin_cartao" style="stroke:#666666;stroke-width:1;stroke-dasharray:7,7;"/><polygon fill="#666666" points="719.2917,700.7111,714.5563,692.0754,715.3143,697.6812,709.7085,698.4392,719.2917,700.7111" style="stroke:#666666;stroke-width:1;stroke-linejoin:miter;stroke-miterlimit:10;"/><text fill="#000000" font-family="Helvetica" font-size="11" lengthAdjust="spacing" textLength="94.7676" x="589.4917" y="616.1313">carga inicial, &#224; m&#227;o</text><text fill="#000000" font-family="Helvetica" font-size="11" font-style="italic" lengthAdjust="spacing" textLength="48.3022" x="612.7244" y="627.1313">(opcional)</text></g><!--link api to fw--><g class="link" data-entity-1="ent0011" data-entity-2="ent0017" data-link-type="dependency" data-source-line="80" id="lnk28"><path d="M245.1052,774.7546 C254.4052,797.3446 266.6817,819.0311 286.7917,836.6611 C334.9117,878.8411 397.6471,902.3445 453.2771,916.5445" fill="none" id="api-fw" style="stroke:#666666;stroke-width:1;"/><polygon fill="#666666" points="243.2017,770.1311,242.9291,779.9762,245.1052,774.7546,250.3268,776.9307,243.2017,770.1311" style="stroke:#666666;stroke-width:1;stroke-linejoin:miter;stroke-miterlimit:10;"/><polygon fill="#666666" points="458.1217,917.7811,450.3907,911.6794,453.2771,916.5445,448.412,919.4309,458.1217,917.7811" style="stroke:#666666;stroke-width:1;stroke-linejoin:miter;stroke-miterlimit:10;"/><text fill="#000000" font-family="Helvetica" font-size="11" font-weight="700" lengthAdjust="spacing" textLength="91.6631" x="310.1489" y="811.1313">HTTP sobre Wi-Fi</text><text fill="#000000" font-family="Helvetica" font-size="11" font-style="italic" lengthAdjust="spacing" textLength="136.3774" x="287.7917" y="822.1313">conex&#227;o epis&#243;dica: sobe no</text><text fill="#000000" font-family="Helvetica" font-size="11" font-style="italic" lengthAdjust="spacing" textLength="102.1152" x="304.9228" y="833.1313">clique, atualiza, e cai</text></g><!--link cfg_cartao to fw--><g class="link" data-entity-1="ent0013" data-entity-2="ent0017" data-link-type="dependency" data-source-line="81" id="lnk29"><path d="M427.1117,742.5811 C428.2317,765.3711 432.6817,806.5411 449.7917,836.6611 C459.9717,854.5711 470.8624,867.6431 486.0024,881.8231" fill="none" id="cfg_cartao-to-fw" style="stroke:#666666;stroke-width:1;"/><polygon fill="#666666" points="489.6517,885.2411,485.8173,876.1693,486.0024,881.8231,480.3486,882.0083,489.6517,885.2411" style="stroke:#666666;stroke-width:1;stroke-linejoin:miter;stroke-miterlimit:10;"/><text fill="#000000" font-family="Helvetica" font-size="11" lengthAdjust="spacing" textLength="17.123" x="450.7917" y="822.1313">lido</text><text fill="#000000" font-family="Helvetica" font-size="11" font-weight="700" lengthAdjust="spacing" textLength="69.0884" x="470.9709" y="822.1313">a cada clique</text></g><!--link versao_cartao to fw--><g class="link" data-entity-1="ent0015" data-entity-2="ent0017" data-link-type="dependency" data-source-line="82" id="lnk30"><path d="M553.0627,747.5586 C552.5727,762.9586 552.0617,781.3411 551.7917,801.6611 C551.5917,817.2111 551.3217,821.1111 551.7917,836.6611 C552.2717,852.4911 552.8712,864.7407 553.8412,880.3307" fill="none" id="versao_cartao-fw" style="stroke:#666666;stroke-width:1;"/><polygon fill="#666666" points="553.2217,742.5611,548.9375,751.4293,553.0627,747.5586,556.9335,751.6837,553.2217,742.5611" style="stroke:#666666;stroke-width:1;stroke-linejoin:miter;stroke-miterlimit:10;"/><polygon fill="#666666" points="554.1517,885.3211,557.5851,876.0901,553.8412,880.3307,549.6006,876.5869,554.1517,885.3211" style="stroke:#666666;stroke-width:1;stroke-linejoin:miter;stroke-miterlimit:10;"/><text fill="#000000" font-family="Helvetica" font-size="11" lengthAdjust="spacing" textLength="103.3398" x="552.7917" y="822.1313">decide se vale baixar</text></g><!--link fw to bin_cartao--><g class="link" data-entity-1="ent0017" data-entity-2="ent0014" data-link-type="dependency" data-source-line="83" id="lnk31"><path d="M657.4717,930.6211 C724.0417,921.4411 807.1217,897.5111 850.7917,836.6611 C874.4717,803.6611 836.3879,772.5507 799.0279,751.1007" fill="none" id="fw-to-bin_cartao" style="stroke:#666666;stroke-width:1;"/><polygon fill="#666666" points="794.6917,748.6111,800.5051,756.5612,799.0279,751.1007,804.4884,749.6234,794.6917,748.6111" style="stroke:#666666;stroke-width:1;stroke-linejoin:miter;stroke-miterlimit:10;"/><text fill="#000000" font-family="Helvetica" font-size="11" font-weight="700" lengthAdjust="spacing" textLength="94.7354" x="858.6417" y="816.6313">gravado pelo OTA</text><text fill="#000000" font-family="Helvetica" font-size="11" lengthAdjust="spacing" textLength="43.3984" x="956.4332" y="816.6313">(RF05.2)</text><text fill="#000000" font-family="Helvetica" font-size="11" font-style="italic" lengthAdjust="spacing" textLength="139.9976" x="859.2379" y="827.6313">.tmp &#8594; valida &#8594; .bak &#8594; .bin</text></g><!--link bin_cartao to fw--><g class="link" data-entity-1="ent0014" data-entity-2="ent0017" data-link-type="dependency" data-source-line="84" id="lnk32"><path d="M732.4417,748.2311 C716.3517,771.3111 689.8417,807.7611 663.7917,836.6611 C648.8717,853.2111 635.2526,866.7455 619.0426,881.8255" fill="none" id="bin_cartao-to-fw" style="stroke:#666666;stroke-width:1;"/><polygon fill="#666666" points="615.3817,885.2311,624.6957,882.0296,619.0426,881.8255,619.2467,876.1723,615.3817,885.2311" style="stroke:#666666;stroke-width:1;stroke-linejoin:miter;stroke-miterlimit:10;"/><text fill="#000000" font-family="Helvetica" font-size="11" lengthAdjust="spacing" textLength="86.8452" x="691.8317" y="816.6313">base lida no boot,</text><text fill="#000000" font-family="Helvetica" font-size="11" font-weight="700" lengthAdjust="spacing" textLength="45.23" x="781.7331" y="816.6313">em fluxo</text><text fill="#000000" font-family="Helvetica" font-size="11" font-style="italic" lengthAdjust="spacing" textLength="109.4468" x="704.674" y="827.6313">com recuo para o .bak</text></g><!--link fw to perif--><g class="link" data-entity-1="ent0017" data-entity-2="ent0018" data-link-type="dependency" data-source-line="85" id="lnk33"><path d="M556.2859,992.8392 C555.7659,1011.9692 555.4589,1023.453 554.9689,1041.313" fill="none" id="fw-perif" style="stroke:#666666;stroke-width:1;"/><polygon fill="#666666" points="556.4217,987.8411,552.1787,996.7291,556.2859,992.8392,560.1757,996.9465,556.4217,987.8411" style="stroke:#666666;stroke-width:1;stroke-linejoin:miter;stroke-miterlimit:10;"/><polygon fill="#666666" points="554.8317,1046.3111,559.0771,1037.4242,554.9689,1041.313,551.0801,1037.2048,554.8317,1046.3111" style="stroke:#666666;stroke-width:1;stroke-linejoin:miter;stroke-miterlimit:10;"/><text fill="#000000" font-family="Helvetica" font-size="11" lengthAdjust="spacing" textLength="120.3984" x="556.7917" y="1020.1313">GPIO, SPI, UART, PWM</text></g><g class="legend" data-source-line="87"><rect fill="none" height="38" rx="4" ry="4" style="stroke:#000000;stroke-width:1;" width="358.6875" x="325.0721" y="1161.6611"/><text fill="#000000" font-family="Helvetica" font-size="14" lengthAdjust="spacing" textLength="348.6875" x="330.0721" y="1177.4414">Linha cont&#237;nua: implementado e exercitado na bancada.</text><text fill="#000000" font-family="Helvetica" font-size="14" lengthAdjust="spacing" textLength="332.3018" x="330.0721" y="1191.4414">Tracejada e cinza: previsto, ainda n&#227;o implementado.</text></g><?plantuml-src TLRBRjj65DtpAowSHMn6ByjvE4OHG7ucoCE6vIGe4C0PaIDvOdA66GxbHn6WgsuB55rrbQ2B88ki4g1TLt-I7-WlzDmXQLEnAzeIoRbpxllClKd3OfIhtCbKv1GRYemjteZ3IPQJ93oALEaZmoknm9VKpagIYSmxmStW9cqRxIHDfSsLqI8M7TgbuOiT4eOIbfzzeecqV9SPkuOD_CaIeLsH9jHs-NG2x2Zl2lksK4wwmefEXZMF_ksFz__-_IjjmJoAbPXOaGgAPHvPEPKqsDjwDXZ2oBS5JChTx0DfoQ9MPYPNRlR5AjEX0Hch9ZA57a1k35-mKR5Cr8WD4wba3uIUVTKg5Mk0ownv8vqXFVkJ7sHUf9B6tb4jzL6HYXPY4qkW6Hspzoa96ebSCZ9sZnBfxMJ3KagnKvJHsYK555XbEQ1ZPTCJOMlR8Lg_yH7eD4EmIw_PM1ZJ6Idzcg8ZEH4SvKXOntRkRJtPfTs30Ntx-NSsmz3-TkyEBIwCX3gTVMWd0ZRd8fdwUm3hYxqBIyWwky21LGwmRlOrLP5W8ncbq-SeHhClcH8qUqyfAuIEVFO5ku0oOK2bLQH4iiO9Wk_zNlzkktU_tU_35ZOCsPiYSgKgPqrqhQ8WSCebaZPy7TBEtj1xb3Ugz9gw38ByMEbCe42GYEXuOasXumsJ8D8tjhVuQaZ4SYoAn77jFaF-wQ5CfjB1ZePCVWJO4wKdD1P9BXih5RJLqj9gu_t0MdDIgRphFzyliiAXEfUqlDnOqWO1andTljDK8lJnbPSPF1CJIJy5HEl6nj9Mwkxt-EAtLtnVvmihNhSxGsH79ec3TmrOP2Gpg6nt5VZsuDxwuDvrm5k3xVxsQWtidUhFeQAsr5X4ru0EUgkzbS7_MBkorRi26aI9AM9QA7imBdljbUvsvIcwIQEe6gsgOj7jBX3gf1I_iTtZAmZgw2s0JiJi8-z0cJehHY919L6tkxXtvewCRb7kOj33KeLpPFBIYmkN5fX5CX5R1b4xkwjUBigd4BgCva9aD9ZHePtFIe7gULvgR6mgd3ci-pixywxvNaHG92NItp1ZbA8N_lcdUJHcsqCe6gj9hPPVHUF9l5nUp3upeHdl7clSCMQIo0EGKOkMLtlac4lpIbVvC1U3C6mmKXWonF9TMkUWHc8aPnzzM6yXXNW9ziU_lh0TMmHuy3l0yl3fmDWIpqgq1hrKxMs5EF01LU3h-VwJsYnswrqZjKDffohcO5M4p5dTDD6nj7KsSplroMp6ejfLXRxCVgjKPetZKAjJ0PslDDPhh_dG0m5_--Ktmf502VX8D9RXeLypxEli0vprwaMcvYpUgFWRD6ZDSDCRl3quMEctwEdwVcqqCpLqpHVXPRJgM1oMSdDI3NlOkLlKSMb6kgBW5dL6ufY3ON1iSY34POQkWokzxhXJvwNAnrgmwTW0D22v0fY-zqMUuRYrPxIdy1SPwjFBAXwLs7Sv2SFwC0n37vIDMxUMxxNApSFDnqjbDaIMqJz_4HSA_mfqnBdK_b0thxGkeaGQNf0w0irQlarax7_CnAUp6qk7IfLNpj-woqxc3SjmVezddopio1cWHdxyOxjtkyV8JxOsQNzdtVSKZY-yYLMEcUUCRqV5-Rcq5RR7ugYLLDNfF60IeRN6uC3p18eJMfG8UB7TVd199FMDVrln0RONkGZAZlMObmjJaO0VKPDXcCeyDOXjpIAr42DLtOaDrQp5lhmjCBMfSvGCapcpxiR-Hdkbt-q65SEKjk7tOXydhdUtrqEsWg16PIcq0QIoOfJWsEMvCdsbwpRiyecUTuC6ObLWs18P324yM9PZo0Ke-tbPiYp8OqazbBHgUNPaqMGHJwk9juej-S67xmIxml3XmS4UvMQ4kSmJJyb42BGyvJwLcSBO4yFgDPPY1kLAX4IYaBKMPfe2GJxtCs8aLDVxKPjreGTfu2Jmz8Hyb7l3C9XhfuPPiOnG0mH2GmPnX6Ec4pR0KfMjIxV3qCzPF73Bn0zUoF5YELmjiPs-_PcOgbhWMyy1vOs2ID10l331qwdVWJDZP0nEYJ3adacAKrC72OEBZ0henWY0AcDSm66_TyMNEw1szXxjjcYuzwX5pmVx1sZgbq-3894JgMD0EsTIzDmJ9bGkTJVxh0k4MwKP1ciqeIyOagVIHie_Q6PxpQ7iOEC1Yb6-uRWY0qgVOoj6Wod6HuFqACqk-8ExWTS9eBkq8FWF?></g></svg>